<mxfile host="app.diagrams.net" agent="Mozilla/5.0 (Windows NT 10.0; Win64; x64) AppleWebKit/537.36 (KHTML, like Gecko) Chrome/133.0.0.0 Safari/537.36" version="26.1.0">
  <diagram id="R2lEEEUBdFMjLlhIrx00" name="Page-1">
    <mxGraphModel grid="1" page="1" gridSize="10" guides="1" tooltips="1" connect="1" arrows="1" fold="1" pageScale="1" pageWidth="850" pageHeight="1100" math="0" shadow="0" extFonts="Permanent Marker^https://fonts.googleapis.com/css?family=Permanent+Marker">
      <root>
        <mxCell id="0" />
        <mxCell id="1" parent="0" />
        <mxCell id="anvgo6Y6VoObHTaAnTeM-12" style="edgeStyle=orthogonalEdgeStyle;rounded=0;orthogonalLoop=1;jettySize=auto;html=1;" edge="1" parent="1" source="anvgo6Y6VoObHTaAnTeM-14" target="anvgo6Y6VoObHTaAnTeM-17">
          <mxGeometry relative="1" as="geometry" />
        </mxCell>
        <mxCell id="anvgo6Y6VoObHTaAnTeM-13" style="edgeStyle=orthogonalEdgeStyle;rounded=0;orthogonalLoop=1;jettySize=auto;html=1;entryX=0.5;entryY=0;entryDx=0;entryDy=0;" edge="1" parent="1" source="anvgo6Y6VoObHTaAnTeM-14" target="anvgo6Y6VoObHTaAnTeM-15">
          <mxGeometry relative="1" as="geometry" />
        </mxCell>
        <mxCell id="anvgo6Y6VoObHTaAnTeM-14" value="&amp;lt;&amp;lt;Window&amp;gt;&amp;gt;&lt;br&gt;Home Screen&lt;br&gt;Menu&lt;br&gt;status&lt;br&gt;&lt;br&gt;&amp;lt;&amp;lt;Button&amp;gt;&amp;gt;&lt;br&gt;List&lt;br&gt;&amp;lt;&amp;lt;Button&amp;gt;&amp;gt;&lt;br&gt;Add Project&lt;br&gt;&amp;lt;&amp;lt;Button&amp;gt;&amp;gt;&lt;br&gt;Add Task&lt;br&gt;&amp;lt;&amp;lt;Button&amp;gt;&amp;gt;&lt;br&gt;Edit Project&lt;br&gt;&amp;lt;&amp;lt;Button&amp;gt;&amp;gt;&lt;br&gt;Reminder&lt;br&gt;&lt;div&gt;&lt;br&gt;&lt;/div&gt;" style="rounded=0;whiteSpace=wrap;html=1;align=center;" vertex="1" parent="1">
          <mxGeometry x="250" y="-50" width="310" height="260" as="geometry" />
        </mxCell>
        <mxCell id="anvgo6Y6VoObHTaAnTeM-15" value="&amp;lt;&amp;lt;Form&amp;gt;&amp;gt;&lt;br&gt;Reminder&lt;br&gt;&amp;lt;&amp;lt;Button&amp;gt;&amp;gt;&lt;br&gt;Filter&lt;div&gt;&lt;br/&gt;&lt;/div&gt;" style="rounded=0;whiteSpace=wrap;html=1;" vertex="1" parent="1">
          <mxGeometry x="540" y="290" width="270" height="160" as="geometry" />
        </mxCell>
        <mxCell id="anvgo6Y6VoObHTaAnTeM-16" value="" style="edgeStyle=orthogonalEdgeStyle;rounded=0;orthogonalLoop=1;jettySize=auto;html=1;" edge="1" parent="1" source="anvgo6Y6VoObHTaAnTeM-17" target="anvgo6Y6VoObHTaAnTeM-19">
          <mxGeometry relative="1" as="geometry" />
        </mxCell>
        <mxCell id="anvgo6Y6VoObHTaAnTeM-49" style="edgeStyle=orthogonalEdgeStyle;rounded=0;orthogonalLoop=1;jettySize=auto;html=1;entryX=0.5;entryY=0;entryDx=0;entryDy=0;" edge="1" parent="1" source="anvgo6Y6VoObHTaAnTeM-17" target="anvgo6Y6VoObHTaAnTeM-40">
          <mxGeometry relative="1" as="geometry" />
        </mxCell>
        <mxCell id="anvgo6Y6VoObHTaAnTeM-17" value="&lt;font style=&quot;font-size: 11px;&quot;&gt;&amp;lt;&amp;lt;Form&amp;gt;&amp;gt;&lt;br&gt;Edit Project&lt;br&gt;&amp;lt;&amp;lt;Button&amp;gt;&amp;gt;&lt;br&gt;Add Project&lt;br&gt;&amp;lt;&amp;lt;Button&amp;gt;&amp;gt;&lt;br&gt;Add Task&lt;br&gt;&amp;lt;&amp;lt;Button&amp;gt;&amp;gt;&lt;br&gt;Edit Project&lt;/font&gt;&lt;div&gt;&lt;font style=&quot;font-size: 11px;&quot;&gt;&amp;lt;&amp;lt;Button&amp;gt;&amp;gt;&lt;br&gt;Edit Task&lt;/font&gt;&lt;/div&gt;" style="rounded=0;whiteSpace=wrap;html=1;" vertex="1" parent="1">
          <mxGeometry x="30" y="290" width="270" height="160" as="geometry" />
        </mxCell>
        <mxCell id="anvgo6Y6VoObHTaAnTeM-18" value="" style="edgeStyle=orthogonalEdgeStyle;rounded=0;orthogonalLoop=1;jettySize=auto;html=1;" edge="1" parent="1" source="anvgo6Y6VoObHTaAnTeM-19" target="anvgo6Y6VoObHTaAnTeM-20">
          <mxGeometry relative="1" as="geometry" />
        </mxCell>
        <mxCell id="anvgo6Y6VoObHTaAnTeM-31" style="edgeStyle=orthogonalEdgeStyle;rounded=0;orthogonalLoop=1;jettySize=auto;html=1;entryX=0.5;entryY=0;entryDx=0;entryDy=0;" edge="1" parent="1" source="anvgo6Y6VoObHTaAnTeM-19" target="anvgo6Y6VoObHTaAnTeM-21">
          <mxGeometry relative="1" as="geometry" />
        </mxCell>
        <mxCell id="anvgo6Y6VoObHTaAnTeM-19" value="&amp;lt;&amp;lt;Form&amp;gt;&amp;gt;&lt;br&gt;Add Project&lt;br&gt;Project Title&lt;div&gt;Due Date&lt;br&gt;Reminder Date&lt;br&gt;Status&lt;br&gt;&lt;div&gt;&amp;lt;&amp;lt;Button&amp;gt;&amp;gt;&lt;br&gt;Push&amp;nbsp;&lt;br&gt;&lt;div&gt;&amp;lt;&amp;lt;Button&amp;gt;&amp;gt;&lt;br&gt;Push&amp;nbsp;&lt;/div&gt;&lt;/div&gt;&lt;/div&gt;" style="rounded=0;whiteSpace=wrap;html=1;" vertex="1" parent="1">
          <mxGeometry x="240" y="570" width="270" height="160" as="geometry" />
        </mxCell>
        <mxCell id="anvgo6Y6VoObHTaAnTeM-32" style="edgeStyle=orthogonalEdgeStyle;rounded=0;orthogonalLoop=1;jettySize=auto;html=1;entryX=0.5;entryY=1;entryDx=0;entryDy=0;" edge="1" parent="1" source="anvgo6Y6VoObHTaAnTeM-20" target="anvgo6Y6VoObHTaAnTeM-21">
          <mxGeometry relative="1" as="geometry" />
        </mxCell>
        <mxCell id="anvgo6Y6VoObHTaAnTeM-51" style="edgeStyle=orthogonalEdgeStyle;rounded=0;orthogonalLoop=1;jettySize=auto;html=1;" edge="1" parent="1" source="anvgo6Y6VoObHTaAnTeM-20" target="anvgo6Y6VoObHTaAnTeM-50">
          <mxGeometry relative="1" as="geometry" />
        </mxCell>
        <mxCell id="anvgo6Y6VoObHTaAnTeM-54" style="edgeStyle=orthogonalEdgeStyle;rounded=0;orthogonalLoop=1;jettySize=auto;html=1;entryX=0.5;entryY=0;entryDx=0;entryDy=0;" edge="1" parent="1" source="anvgo6Y6VoObHTaAnTeM-20" target="anvgo6Y6VoObHTaAnTeM-53">
          <mxGeometry relative="1" as="geometry" />
        </mxCell>
        <mxCell id="anvgo6Y6VoObHTaAnTeM-20" value="&amp;lt;&amp;lt;Form&amp;gt;&amp;gt;&lt;br&gt;Add Task&lt;br&gt;Multi-select control label&lt;br&gt;Task Title&lt;br&gt;Due Date&lt;br&gt;Reminder Date&lt;br&gt;Status&lt;br&gt;Note or Comment&lt;br&gt;&amp;lt;&amp;lt;Button&amp;gt;&amp;gt;&lt;br&gt;Push" style="rounded=0;whiteSpace=wrap;html=1;" vertex="1" parent="1">
          <mxGeometry x="240" y="820" width="270" height="160" as="geometry" />
        </mxCell>
        <mxCell id="anvgo6Y6VoObHTaAnTeM-21" value="&amp;lt;&amp;lt;Report&amp;gt;&amp;gt;&lt;br&gt;The project-task is about to ended.&lt;br&gt;&amp;lt;&amp;lt;Report&amp;gt;&amp;gt;&lt;br&gt;The project is ended." style="rounded=0;whiteSpace=wrap;html=1;" vertex="1" parent="1">
          <mxGeometry x="580" y="680" width="270" height="160" as="geometry" />
        </mxCell>
        <mxCell id="anvgo6Y6VoObHTaAnTeM-33" value="Click Reminder Button" style="text;html=1;align=center;verticalAlign=middle;whiteSpace=wrap;rounded=0;" vertex="1" parent="1">
          <mxGeometry x="610" y="210" width="90" height="30" as="geometry" />
        </mxCell>
        <mxCell id="anvgo6Y6VoObHTaAnTeM-34" value="Click Project Button" style="text;html=1;align=center;verticalAlign=middle;whiteSpace=wrap;rounded=0;" vertex="1" parent="1">
          <mxGeometry x="130" y="210" width="90" height="30" as="geometry" />
        </mxCell>
        <mxCell id="anvgo6Y6VoObHTaAnTeM-35" value="Click Add Project Button" style="text;html=1;align=center;verticalAlign=middle;whiteSpace=wrap;rounded=0;" vertex="1" parent="1">
          <mxGeometry x="220" y="470" width="145" height="30" as="geometry" />
        </mxCell>
        <mxCell id="anvgo6Y6VoObHTaAnTeM-39" value="Click Add Task Button" style="text;html=1;align=center;verticalAlign=middle;whiteSpace=wrap;rounded=0;" vertex="1" parent="1">
          <mxGeometry x="380" y="760" width="145" height="30" as="geometry" />
        </mxCell>
        <mxCell id="anvgo6Y6VoObHTaAnTeM-44" value="" style="edgeStyle=orthogonalEdgeStyle;rounded=0;orthogonalLoop=1;jettySize=auto;html=1;" edge="1" parent="1" source="anvgo6Y6VoObHTaAnTeM-40" target="anvgo6Y6VoObHTaAnTeM-43">
          <mxGeometry relative="1" as="geometry" />
        </mxCell>
        <mxCell id="anvgo6Y6VoObHTaAnTeM-40" value="&amp;lt;&amp;lt;Form&amp;gt;&amp;gt;&lt;br&gt;Edit Project&lt;div&gt;Project Title&lt;/div&gt;&lt;div&gt;Due Date&lt;br&gt;Reminder Date&lt;br&gt;Status&lt;br&gt;&amp;lt;&amp;lt;Button&amp;gt;&amp;gt;&lt;br&gt;Push&lt;/div&gt;&lt;div&gt;&lt;br&gt;&lt;/div&gt;" style="rounded=0;whiteSpace=wrap;html=1;" vertex="1" parent="1">
          <mxGeometry x="-170" y="570" width="270" height="160" as="geometry" />
        </mxCell>
        <mxCell id="anvgo6Y6VoObHTaAnTeM-42" value="Click Edit Project" style="text;html=1;align=center;verticalAlign=middle;whiteSpace=wrap;rounded=0;" vertex="1" parent="1">
          <mxGeometry x="40" y="520" width="90" height="30" as="geometry" />
        </mxCell>
        <mxCell id="anvgo6Y6VoObHTaAnTeM-56" style="edgeStyle=orthogonalEdgeStyle;rounded=0;orthogonalLoop=1;jettySize=auto;html=1;entryX=0;entryY=0.5;entryDx=0;entryDy=0;" edge="1" parent="1" source="anvgo6Y6VoObHTaAnTeM-43" target="anvgo6Y6VoObHTaAnTeM-50">
          <mxGeometry relative="1" as="geometry" />
        </mxCell>
        <mxCell id="anvgo6Y6VoObHTaAnTeM-43" value="&amp;lt;&amp;lt;Form&amp;gt;&amp;gt;&lt;br&gt;&lt;div&gt;Edit Task&lt;/div&gt;&lt;div&gt;Multi-select control label&lt;/div&gt;&lt;div&gt;Task Title&lt;/div&gt;&lt;div&gt;Due Date&lt;br&gt;Reminder Date&lt;br&gt;Status&lt;/div&gt;&lt;div&gt;Note or Comment&lt;br&gt;&amp;lt;&amp;lt;Button&amp;gt;&amp;gt;&lt;br&gt;Push&lt;/div&gt;&lt;div&gt;&lt;br&gt;&lt;/div&gt;" style="rounded=0;whiteSpace=wrap;html=1;" vertex="1" parent="1">
          <mxGeometry x="-170" y="820" width="270" height="170" as="geometry" />
        </mxCell>
        <mxCell id="anvgo6Y6VoObHTaAnTeM-45" value="Click Edit Task" style="text;html=1;align=center;verticalAlign=middle;whiteSpace=wrap;rounded=0;" vertex="1" parent="1">
          <mxGeometry x="-30" y="760" width="90" height="30" as="geometry" />
        </mxCell>
        <mxCell id="anvgo6Y6VoObHTaAnTeM-46" value="Time Triggered&lt;span style=&quot;color: rgba(0, 0, 0, 0); font-family: monospace; font-size: 0px; text-align: start; text-wrap-mode: nowrap;&quot;&gt;%3CmxGraphModel%3E%3Croot%3E%3CmxCell%20id%3D%220%22%2F%3E%3CmxCell%20id%3D%221%22%20parent%3D%220%22%2F%3E%3CmxCell%20id%3D%222%22%20value%3D%22%26amp%3Blt%3B%26amp%3Blt%3BForm%26amp%3Bgt%3B%26amp%3Bgt%3B%26lt%3Bbr%26gt%3BEdit%20Project%26lt%3Bdiv%26gt%3BProject%20Title%26lt%3B%2Fdiv%26gt%3B%26lt%3Bdiv%26gt%3BDue%20Date%26lt%3Bbr%26gt%3BReminder%20Date%26lt%3Bbr%26gt%3BStatus%26lt%3Bbr%26gt%3B%26amp%3Blt%3B%26amp%3Blt%3BButton%26amp%3Bgt%3B%26amp%3Bgt%3B%26lt%3Bbr%26gt%3BPush%26lt%3B%2Fdiv%26gt%3B%26lt%3Bdiv%26gt%3B%26lt%3Bbr%26gt%3B%26lt%3B%2Fdiv%26gt%3B%22%20style%3D%22rounded%3D0%3BwhiteSpace%3Dwrap%3Bhtml%3D1%3B%22%20vertex%3D%221%22%20parent%3D%221%22%3E%3CmxGeometry%20x%3D%22-170%22%20y%3D%22570%22%20width%3D%22270%22%20height%3D%22160%22%20as%3D%22geometry%22%2F%3E%3C%2FmxCell%3E%3C%2Froot%3E%3C%2FmxGraphModel%3E&lt;/span&gt;" style="text;html=1;align=center;verticalAlign=middle;whiteSpace=wrap;rounded=0;" vertex="1" parent="1">
          <mxGeometry x="625" y="910" width="60" height="30" as="geometry" />
        </mxCell>
        <mxCell id="anvgo6Y6VoObHTaAnTeM-47" value="Time Triggered&lt;span style=&quot;color: rgba(0, 0, 0, 0); font-family: monospace; font-size: 0px; text-align: start; text-wrap-mode: nowrap;&quot;&gt;%3CmxGraphModel%3E%3Croot%3E%3CmxCell%20id%3D%220%22%2F%3E%3CmxCell%20id%3D%221%22%20parent%3D%220%22%2F%3E%3CmxCell%20id%3D%222%22%20value%3D%22%26amp%3Blt%3B%26amp%3Blt%3BForm%26amp%3Bgt%3B%26amp%3Bgt%3B%26lt%3Bbr%26gt%3BEdit%20Project%26lt%3Bdiv%26gt%3BProject%20Title%26lt%3B%2Fdiv%26gt%3B%26lt%3Bdiv%26gt%3BDue%20Date%26lt%3Bbr%26gt%3BReminder%20Date%26lt%3Bbr%26gt%3BStatus%26lt%3Bbr%26gt%3B%26amp%3Blt%3B%26amp%3Blt%3BButton%26amp%3Bgt%3B%26amp%3Bgt%3B%26lt%3Bbr%26gt%3BPush%26lt%3B%2Fdiv%26gt%3B%26lt%3Bdiv%26gt%3B%26lt%3Bbr%26gt%3B%26lt%3B%2Fdiv%26gt%3B%22%20style%3D%22rounded%3D0%3BwhiteSpace%3Dwrap%3Bhtml%3D1%3B%22%20vertex%3D%221%22%20parent%3D%221%22%3E%3CmxGeometry%20x%3D%22-170%22%20y%3D%22570%22%20width%3D%22270%22%20height%3D%22160%22%20as%3D%22geometry%22%2F%3E%3C%2FmxCell%3E%3C%2Froot%3E%3C%2FmxGraphModel%3E&lt;/span&gt;" style="text;html=1;align=center;verticalAlign=middle;whiteSpace=wrap;rounded=0;" vertex="1" parent="1">
          <mxGeometry x="635" y="600" width="60" height="30" as="geometry" />
        </mxCell>
        <mxCell id="anvgo6Y6VoObHTaAnTeM-50" value="&amp;lt;&amp;lt;Form&amp;gt;&amp;gt;&lt;br&gt;Multi-select control label&lt;div&gt;&lt;br&gt;&lt;/div&gt;" style="rounded=0;whiteSpace=wrap;html=1;" vertex="1" parent="1">
          <mxGeometry x="80" y="1050" width="240" height="190" as="geometry" />
        </mxCell>
        <mxCell id="anvgo6Y6VoObHTaAnTeM-52" value="Swipe" style="text;html=1;align=center;verticalAlign=middle;whiteSpace=wrap;rounded=0;" vertex="1" parent="1">
          <mxGeometry x="250" y="980" width="60" height="30" as="geometry" />
        </mxCell>
        <mxCell id="anvgo6Y6VoObHTaAnTeM-53" value="&amp;lt;&amp;lt;Form&amp;gt;&amp;gt;&lt;br&gt;Status" style="rounded=0;whiteSpace=wrap;html=1;" vertex="1" parent="1">
          <mxGeometry x="445" y="1050" width="240" height="190" as="geometry" />
        </mxCell>
        <mxCell id="anvgo6Y6VoObHTaAnTeM-55" value="Swipe" style="text;html=1;align=center;verticalAlign=middle;whiteSpace=wrap;rounded=0;" vertex="1" parent="1">
          <mxGeometry x="465" y="980" width="60" height="30" as="geometry" />
        </mxCell>
      </root>
    </mxGraphModel>
  </diagram>
</mxfile>
